<svg width="129" height="13" viewBox="0 0 129 13" fill="none" xmlns="http://www.w3.org/2000/svg">
<path fill-rule="evenodd" clip-rule="evenodd" d="M16.7907 9.94278H18.6642C19.1291 9.94278 19.4693 9.82825 19.6881 9.59919C19.9052 9.36842 20.0129 9.11201 20.0129 8.82312C20.0129 8.53594 19.9086 8.26927 19.6966 8.02825C19.4864 7.78722 19.0984 7.66585 18.536 7.66585H16.7907V9.94278ZM16.7907 5.00261H18.5719C19.018 5.00261 19.3343 4.88979 19.5172 4.66414C19.7018 4.43679 19.7924 4.19577 19.7924 3.93765C19.7924 3.24021 19.365 2.89149 18.5069 2.89149H16.7907V5.00261ZM13.2471 12.7342V0.202606H19.6095C20.9308 0.202606 21.8949 0.53594 22.5018 1.20261C23.1069 1.86927 23.4112 2.63167 23.4112 3.48979C23.4112 4.11372 23.2351 4.67782 22.883 5.18209C22.5308 5.68808 22.006 6.03509 21.3086 6.22483C22.9291 6.61628 23.7411 7.58893 23.7411 9.14449C23.7411 10.0744 23.4539 10.9052 22.883 11.6368C22.3103 12.3684 21.0881 12.7342 19.2146 12.7342H13.2471Z" fill="#FEFEFE"/>
<path fill-rule="evenodd" clip-rule="evenodd" d="M24.5691 9.10809L28.14 8.46535C28.4409 9.47561 29.2118 9.97988 30.4546 9.97988C31.4221 9.97988 31.9058 9.72176 31.9058 9.20894C31.9058 8.93886 31.793 8.7286 31.5708 8.57817C31.3469 8.43116 30.9469 8.29612 30.3725 8.18159C28.1742 7.75937 26.7623 7.21065 26.1383 6.5286C25.5144 5.84997 25.2033 5.05168 25.2033 4.13202C25.2033 2.95082 25.6511 1.96792 26.5469 1.18501C27.4443 0.400395 28.7349 0.00894165 30.417 0.00894165C32.9708 0.00894165 34.6563 1.03287 35.4768 3.08586L32.2905 4.04826C31.9605 3.21065 31.2905 2.79185 30.2802 2.79185C29.4409 2.79185 29.0221 3.05168 29.0221 3.57133C29.0221 3.80381 29.1178 3.98501 29.3058 4.11321C29.4956 4.24142 29.8631 4.3645 30.4084 4.47903C31.9076 4.79698 32.9742 5.07903 33.605 5.32176C34.234 5.56621 34.7605 5.9833 35.1828 6.57475C35.605 7.1645 35.817 7.86193 35.817 8.66364C35.817 9.93202 35.3024 10.9594 34.2734 11.7474C33.246 12.5337 31.8956 12.9269 30.2255 12.9269C27.1708 12.9269 25.2853 11.6534 24.5691 9.10809Z" fill="#FEFEFE"/>
<path fill-rule="evenodd" clip-rule="evenodd" d="M42.6838 10.0814C43.3317 10.0814 43.8001 9.79765 44.0838 9.23184C44.3693 8.66602 44.5112 7.62842 44.5112 6.12414C44.5112 3.94466 43.9266 2.85406 42.7573 2.85406C41.4958 2.85406 40.8667 4.0985 40.8667 6.58226C40.8667 8.91389 41.4719 10.0814 42.6838 10.0814ZM42.7026 12.9276C40.9385 12.9276 39.5026 12.3429 38.3915 11.1737C37.2804 10.0045 36.7249 8.44038 36.7249 6.48312C36.7249 4.60961 37.2565 3.0626 38.318 1.84038C39.3796 0.61987 40.8531 0.00790405 42.7385 0.00790405C44.4838 0.00790405 45.9043 0.583972 47.0035 1.7344C48.1026 2.88654 48.6513 4.42158 48.6513 6.34295C48.6513 8.3344 48.0975 9.92756 46.9898 11.1276C45.8821 12.3259 44.4531 12.9276 42.7026 12.9276Z" fill="#FEFEFE"/>
<path fill-rule="evenodd" clip-rule="evenodd" d="M59.0634 9.65902V12.7342H50.2771V0.202606H54.1233V9.65902H59.0634Z" fill="#FEFEFE"/>
<path fill-rule="evenodd" clip-rule="evenodd" d="M70.4759 0.202271V8.50142C70.4759 10.0741 70.0092 11.2057 69.0759 11.8946C68.1426 12.5818 66.9255 12.9271 65.4263 12.9271C63.8468 12.9271 62.5785 12.5971 61.6195 11.9356C60.6622 11.2758 60.1836 10.1971 60.1836 8.70483V0.202271H64.0947V8.25355C64.0947 8.85526 64.2212 9.29116 64.4742 9.56808C64.7289 9.8433 65.1323 9.98005 65.6879 9.98005C66.1528 9.98005 66.5323 9.8809 66.828 9.6809C67.1238 9.48261 67.3015 9.25868 67.3597 9.00569C67.4161 8.75612 67.4468 8.26723 67.4468 7.53731V0.202271H70.4759Z" fill="#FEFEFE"/>
<path fill-rule="evenodd" clip-rule="evenodd" d="M77.6832 3.20364V12.7336H74.0387V3.20364H71.4404V0.201935H80.2815V3.20364H77.6832Z" fill="#FEFEFE"/>
<path fill-rule="evenodd" clip-rule="evenodd" d="M90.8033 9.74073V12.7339H81.3743V0.202271H90.8033V3.09287H85.1469V4.91167H89.7196V7.69458H85.1469V9.74073H90.8033Z" fill="#FEFEFE"/>
<mask id="mask0" mask-type="alpha" maskUnits="userSpaceOnUse" x="0" y="0" width="129" height="13">
<path d="M0.225098 12.9276H128.709V0.00790405H0.225098V12.9276Z" fill="white"/>
</mask>
<g mask="url(#mask0)">
<path fill-rule="evenodd" clip-rule="evenodd" d="M92.4985 12.7344H95.9874V9.38397H92.4985V12.7344Z" fill="#FFD666"/>
<path fill-rule="evenodd" clip-rule="evenodd" d="M101.468 9.94278H103.341C103.806 9.94278 104.147 9.82825 104.365 9.59919C104.582 9.36842 104.69 9.11201 104.69 8.82312C104.69 8.53594 104.586 8.26927 104.374 8.02825C104.164 7.78722 103.776 7.66585 103.213 7.66585H101.468V9.94278ZM101.468 5.00261H103.249C103.695 5.00261 104.011 4.88979 104.194 4.66414C104.379 4.43679 104.47 4.19577 104.47 3.93765C104.47 3.24021 104.042 2.89149 103.184 2.89149H101.468V5.00261ZM97.9243 12.7342V0.202606H104.287C105.608 0.202606 106.572 0.53594 107.179 1.20261C107.784 1.86927 108.088 2.63167 108.088 3.48979C108.088 4.11372 107.912 4.67782 107.56 5.18209C107.208 5.68808 106.683 6.03509 105.986 6.22483C107.606 6.61628 108.418 7.58893 108.418 9.14449C108.418 10.0744 108.131 10.9052 107.56 11.6368C106.988 12.3684 105.765 12.7342 103.892 12.7342H97.9243Z" fill="#FFD666"/>
<path fill-rule="evenodd" clip-rule="evenodd" d="M119.436 9.74073V12.7339H110.007V0.202271H119.436V3.09287H113.779V4.91167H118.352V7.69458H113.779V9.74073H119.436Z" fill="#FFD666"/>
<path fill-rule="evenodd" clip-rule="evenodd" d="M126.111 3.20364V12.7336H122.466V3.20364H119.868V0.201935H128.709V3.20364H126.111Z" fill="#FFD666"/>
<path fill-rule="evenodd" clip-rule="evenodd" d="M8.16209 0.202271H4.09543L0.225342 12.7339H3.34842L3.6356 11.792L4.76893 7.52877H4.75526L5.05098 6.46894L5.76893 3.89287L6.78261 7.52877H5.50568L4.76038 10.2655H7.45782L8.16551 12.7339H12.092L8.16209 0.202271Z" fill="#FEFEFE"/>
</g>
</svg>
