<svg width="41" height="30" viewBox="0 0 41 30" fill="none" xmlns="http://www.w3.org/2000/svg">
<path fill-rule="evenodd" clip-rule="evenodd" d="M14.9912 0H38.4503C39.5549 0 40.4503 0.89543 40.4503 2C40.4503 2.21496 40.4156 2.42852 40.3477 2.63246L33.0485 24.5298C31.9596 27.7966 28.9025 30 25.4591 30H2C0.89543 30 0 29.1046 0 28C0 27.785 0.0346557 27.5715 0.102633 27.3675L7.40176 5.47018C8.49067 2.20344 11.5478 0 14.9912 0Z" fill="#2F3346"/>
<path fill-rule="evenodd" clip-rule="evenodd" d="M28.4951 23.9808L20.3221 12.809L17.7358 7.56342L19.5291 4.05624L28.4951 23.9808Z" fill="#FFD666"/>
<path fill-rule="evenodd" clip-rule="evenodd" d="M19.0464 12.203L10.5626 23.9807L17.1997 8.60968L19.0464 12.203Z" fill="#FFD666"/>
<path fill-rule="evenodd" clip-rule="evenodd" d="M26.9928 18.3921L26.0008 16.2195L30.6609 16.1801L26.9928 18.3921Z" fill="#FFD666"/>
<path fill-rule="evenodd" clip-rule="evenodd" d="M12.9165 16.2192L11.8546 18.4742L8.2564 16.1798L12.9165 16.2192Z" fill="#FFD666"/>
<path fill-rule="evenodd" clip-rule="evenodd" d="M16.0104 17.9824L19.4381 20.2317L23.0436 17.9496L24.427 19.9414L19.4233 23.1247L14.6435 19.9095L16.0104 17.9824Z" fill="#FFD666"/>
</svg>
